<svg width="137" height="48" viewBox="0 0 137 48" fill="none" xmlns="http://www.w3.org/2000/svg">
<g clip-path="url(#clip0_2432_4727)">
<path d="M2.1563 43.0283C1.43553 43.0283 0.810864 42.6749 0.282301 41.9682C0.0961024 41.6914 0 41.4322 0 41.1849C0 40.9081 0.0961024 40.6313 0.282301 40.3544C0.564602 39.9245 0.876935 39.7125 1.2193 39.7125C1.34543 39.7125 1.45355 39.7302 1.54965 39.7596C1.92205 39.8538 2.28243 39.8951 2.6308 39.8951C3.0993 39.8951 3.58582 39.8185 4.08435 39.6654C7.14762 38.9586 8.77535 38.6052 8.96155 38.6052L14.7818 37.3154C14.5956 36.9797 14.4995 36.6735 14.4995 36.3967C14.4995 35.9667 14.6857 34.6769 15.0641 32.5331C15.1902 31.8911 15.2503 31.2433 15.2503 30.6013C15.2503 30.0182 15.2022 29.4234 15.1121 28.805L15.0641 28.1159C15.0641 27.4445 15.2142 26.8379 15.5085 26.296C15.8028 25.7601 16.1873 25.4892 16.6558 25.4892C17.5927 25.4892 18.0612 26.7142 18.0612 29.1702L17.7789 30.9665C17.2804 34.5532 16.854 36.5498 16.5116 36.9503L21.7672 35.8902C27.4613 34.8771 30.8549 34.1586 31.948 33.7287C32.2003 33.6344 32.4466 33.5932 32.6988 33.5932C33.1373 33.5932 33.5457 33.7287 33.9181 34.0055C34.3866 34.3706 34.6209 34.8477 34.6209 35.4308C34.6209 35.8313 34.4647 36.4438 34.1524 37.2683C33.9962 37.6335 33.7319 37.8219 33.3535 37.8219C33.1313 37.8219 32.9391 37.7395 32.7649 37.5687C32.5907 37.3979 32.4286 37.2035 32.2724 36.9679C32.1162 36.7383 31.882 36.6205 31.5696 36.6205L27.7195 37.2212C27.0288 37.2212 24.0136 37.71 18.6619 38.6936L10.0247 40.5783C8.89548 40.7962 7.77228 41.0376 6.64909 41.3144C5.58595 41.497 4.53483 41.9152 3.50774 42.5571C3.06927 42.8634 2.61879 43.0165 2.14429 43.0165L2.1563 43.0283ZM6.0965 29.9594C5.87426 29.9594 5.628 29.8357 5.3457 29.5942C4.84717 29.1937 4.5949 28.8403 4.5949 28.5341C4.5949 28.1689 4.62493 27.9687 4.691 27.9333C4.75106 27.9039 4.7871 27.8744 4.7871 27.8391C5.2556 27.5329 5.71209 27.2089 6.15055 26.8732C7.18366 25.9544 8.34289 25.2477 9.62226 24.7589C10.5893 24.4232 11.4542 23.9167 12.205 23.2394L19.2445 16.7078H19.2926C19.5448 16.4605 19.701 16.2308 19.7611 16.0187C19.7611 15.9598 19.719 15.8833 19.6409 15.789C19.5628 15.6948 19.4908 15.6536 19.4307 15.6536C18.3676 15.6536 17.3645 15.7302 16.4275 15.8833C14.8658 16.1601 13.2862 16.3309 11.6885 16.3898C11.0338 16.3898 10.4271 16.2308 9.88053 15.9068C9.33395 15.5829 9.04564 15.1176 9.0096 14.5051C9.0096 14.14 9.14775 13.7984 9.43005 13.4921C9.61625 13.3095 9.82047 13.2153 10.0427 13.2153L10.325 13.2624C11.1359 13.5392 11.9527 13.6747 12.7636 13.6747C13.2922 13.6747 13.8327 13.6217 14.3853 13.5157C14.9319 13.4097 15.5025 13.339 16.0972 13.3095C16.3134 13.3095 16.5296 13.2801 16.7278 13.2153C16.932 13.1564 17.1423 13.1211 17.3585 13.1211C18.1694 13.0916 18.9202 12.8325 19.6109 12.3378C20.3016 11.8489 21.1606 11.6016 22.1937 11.6016L23.1306 11.6487C24.6923 11.6487 25.4792 12.326 25.4792 13.6747C25.4491 14.2872 25.1368 14.7937 24.5422 15.1942C22.3198 16.6371 20.2896 18.3687 18.4397 20.3947C19.0043 21.2546 19.659 21.8671 20.4098 22.2322C21.8513 23.0627 23.2268 23.8283 24.5422 24.5351C25.323 24.9944 25.7314 25.5657 25.7615 26.2371C25.7615 26.6023 25.6593 26.9027 25.4551 27.1324C25.2509 27.3621 24.9626 27.4798 24.5842 27.4798C24.0196 27.4798 23.425 27.1736 22.8003 26.5611C22.3618 26.0722 20.7041 25.071 17.827 23.5692C16.9801 23.0803 16.4515 22.833 16.2293 22.833C15.977 22.833 15.7308 22.9567 15.4785 23.1981C12.7876 25.5893 11.0998 26.9439 10.4091 27.2502C9.09369 27.8627 7.90442 28.646 6.84129 29.5942C6.55899 29.8416 6.30672 29.9594 6.09049 29.9594H6.0965Z" fill="#282828"/>
<path d="M33.5393 32.3565C32.9747 32.327 32.6924 32.0973 32.6924 31.6674C32.6924 31.5143 32.7464 31.3847 32.8546 31.2787C32.9627 31.1727 33.3651 30.9489 34.0498 30.6132C36.3323 29.6296 38.1942 28.3575 39.6358 26.7967C39.9181 26.4905 40.2604 26.2431 40.6689 26.0605C41.732 25.5717 42.7351 24.8178 43.6721 23.8048C44.0144 23.4043 44.3928 23.0392 44.8013 22.6976C45.456 22.0851 46.1287 21.29 46.8194 20.3064C48.0988 18.7398 48.9157 17.1319 49.258 15.477C49.228 15.4181 49.1199 15.3827 48.9277 15.3827C45.1136 15.6595 42.7831 15.8716 41.9362 16.0247C41.4377 15.9658 40.8851 15.9305 40.2965 15.9305C39.828 15.9305 38.6087 15.9776 36.6386 16.0659L36.5905 16.113C35.8998 16.0541 35.5574 15.7302 35.5574 15.1471C35.5574 14.4757 37.029 14.0752 39.9661 13.9516C41.4677 13.8927 42.9393 13.7042 44.3748 13.3979C44.6271 13.3685 44.9214 13.3508 45.2638 13.3508H46.0146C47.6123 13.3508 49.1559 12.9975 50.6575 12.2907C50.8437 12.167 51.0479 12.1081 51.2702 12.1081C51.8348 12.1081 52.2372 12.4144 52.4895 13.0269C52.6156 13.3626 52.6757 13.6689 52.6757 13.9457C52.6757 14.0988 52.6577 14.2402 52.6276 14.3579C52.5015 14.6642 52.4054 14.9999 52.3453 15.371C52.1591 16.2308 51.8108 17.0259 51.3122 17.7621C51.0299 18.0978 50.8437 18.4217 50.7476 18.728C49.4322 21.7376 47.4141 24.1876 44.6932 26.09C42.4708 27.8686 39.9541 29.4824 37.1371 30.9194C35.8217 31.7498 34.6204 32.221 33.5213 32.3447L33.5393 32.3565ZM58.7361 47.9992C58.5499 47.9992 58.3637 47.9697 58.1715 47.9049C58.1715 47.8755 58.1535 47.8578 58.1235 47.8578C57.9373 47.8284 57.7631 47.7636 57.6069 47.6752C56.9162 47.2747 56.5738 46.7859 56.5738 46.2028C56.5738 45.8024 56.8141 45.4078 57.3006 45.0073C57.7871 44.6068 58.1055 44.1003 58.2616 43.4878C59.0725 39.2237 59.499 36.9268 59.529 36.5852C59.529 36.2789 59.3728 36.1258 59.0605 36.1258H58.8743C57.8111 36.3437 56.73 36.4792 55.6368 36.5381C54.2914 36.6029 52.976 36.7972 51.6966 37.1388C51.1621 37.2625 50.6035 37.3214 50.0088 37.3214C49.0058 37.3214 48.0688 37.5511 47.1918 38.0105C47.0657 38.1047 46.9276 38.1459 46.7714 38.1459C46.4591 38.1165 46.1948 37.9751 45.9725 37.7336C45.6302 37.18 45.456 36.7206 45.456 36.3555C45.456 35.6841 45.8164 35.3425 46.5371 35.3425H46.8194C47.0717 35.4073 47.4741 35.4367 48.0387 35.4367C48.8496 35.4367 49.7145 35.3425 50.6215 35.1599C52.063 34.8242 53.5166 34.6534 54.9881 34.6534H55.3185C56.1954 34.6534 56.8021 34.406 57.1504 33.9172C57.3667 33.7052 57.5228 33.5933 57.6189 33.5933H57.8532C58.3217 33.5933 58.8803 33.393 59.517 32.9925C60.1597 32.5921 60.6822 32.3918 61.0906 32.3918C61.5591 32.3918 61.9496 32.5744 62.2619 32.9454C62.4781 33.1928 62.5922 33.4814 62.5922 33.8171C62.5922 33.9997 62.5442 34.2176 62.4541 34.459C61.5772 36.8208 60.9825 39.3356 60.6702 42.0036C60.5441 42.8929 60.3879 43.688 60.2017 44.3948C60.0756 44.7599 60.0155 45.1486 60.0155 45.5432C60.0155 45.82 60.0455 46.1086 60.1116 46.4149L60.1597 46.6917C60.1597 47.0922 60.0095 47.4043 59.7152 47.634C59.4149 47.8637 59.0965 47.9815 58.7542 47.9815L58.7361 47.9992ZM59.0665 31.8029C58.3157 31.8029 57.9373 31.1609 57.9373 29.8711C57.9673 28.9523 58.0154 28.381 58.0754 28.169C58.4478 26.5435 58.64 24.9356 58.64 23.3395L58.592 22.2794C58.592 20.5597 58.6881 18.8576 58.8743 17.1732L59.2046 11.2836C59.2046 10.3 59.0785 9.35181 58.8322 8.43304L58.7842 7.8323C58.7842 7.03721 59.1446 6.63672 59.8653 6.63672C60.1476 6.63672 60.4299 6.73095 60.7122 6.91353C61.1807 7.24923 61.415 7.77341 61.415 8.48015C61.0726 12.8679 60.8023 16.7786 60.6161 20.2122H60.7122C60.7423 20.1827 62.9046 20.0767 67.1871 19.8883C67.9379 19.8883 68.4365 20.224 68.6887 20.9013C68.7848 21.0838 68.8269 21.2664 68.8269 21.4549C68.8269 21.9437 68.5206 22.3148 67.9139 22.5621C67.3013 22.8095 66.7307 22.9273 66.2021 22.9273C65.8597 22.9273 65.5114 22.8507 65.169 22.6976C65.139 22.6681 65.0489 22.6269 64.9107 22.5798C64.7726 22.5327 64.28 22.5091 63.4331 22.5091C62.1177 22.5386 61.1807 22.5857 60.6161 22.6446V23.6576H60.6642L60.5681 26.4669C60.5681 27.3562 60.6462 28.2456 60.8023 29.1349C60.8624 29.3822 60.8984 29.6119 60.8984 29.824C60.8984 30.6838 60.508 31.2787 59.7272 31.6203C59.505 31.744 59.2887 31.8029 59.0725 31.8029H59.0665Z" fill="#282828"/>
<path d="M86.2283 31.9448C86.1022 31.9448 85.976 31.8977 85.8559 31.8093C85.3874 31.5325 85.0451 31.1497 84.8228 30.6609C84.102 29.2533 83.0389 28.0989 81.6334 27.2096C80.8826 26.6265 80.27 26.3379 79.8015 26.3379C79.6453 26.3379 79.5132 26.385 79.405 26.4734C79.2969 26.5676 79.2068 26.6442 79.1468 26.7031C76.0835 29.0942 74.2215 30.6137 73.5608 31.2557C73.0923 31.6856 72.6839 31.8977 72.3415 31.8977C71.873 31.8977 71.4946 31.5325 71.2123 30.7904C71.1522 30.6668 71.1162 30.5313 71.1162 30.3782C71.1162 29.8245 71.5367 29.2709 72.3836 28.7232C74.696 27.3156 76.8403 25.6842 78.8104 23.8466C81.3151 21.7028 82.9728 20.0302 83.7837 18.8287C84.066 18.493 84.2042 18.2751 84.2042 18.1868C84.2042 18.1279 84.1801 18.0395 84.1321 17.9335C84.084 17.8275 82.5104 17.7568 79.4171 17.7274C78.6362 17.7274 77.8854 17.851 77.1647 18.0925C76.9124 18.1573 76.6781 18.1868 76.4619 18.1868C76.0234 18.1868 75.633 18.0513 75.2907 17.7745C74.7261 17.3445 74.4438 16.7791 74.4438 16.0724C74.5999 15.4893 75.0204 15.2007 75.7111 15.2007C77.6812 15.4187 79.0747 15.5247 79.8856 15.5247C80.8886 15.5247 81.9037 15.4658 82.9368 15.3421C83.9038 15.3421 84.8769 15.0535 85.8439 14.4704C86.0962 14.3173 86.2824 14.2407 86.4085 14.2407C86.6608 14.2407 87.1593 14.5941 87.9101 15.3009C88.2825 15.6071 88.4747 15.8839 88.4747 16.1313C88.4747 16.3139 88.3966 16.5318 88.2405 16.7733C86.835 19.135 84.8168 21.5733 82.186 24.0881C81.9037 24.3355 81.7656 24.5357 81.7656 24.6888C81.7656 24.9656 82.2641 25.5487 83.2672 26.438C83.6756 26.8032 84.048 27.1742 84.3964 27.5453C84.5826 27.7279 84.7868 27.8221 85.009 27.8221C85.1652 27.8221 85.3153 27.7868 85.4535 27.7043C85.5916 27.6277 85.7118 27.5865 85.8079 27.5865C86.1202 27.5865 86.2764 27.7573 86.2764 28.093C86.3064 29.0118 86.5106 29.8893 86.889 30.7139L86.9371 30.9436C86.9371 31.5855 86.7028 31.9271 86.2343 31.9566L86.2283 31.9448ZM86.0421 45.1021C84.8829 45.1021 84.3063 44.2422 84.3063 42.5225C84.3063 40.3787 83.8498 38.335 82.9428 36.4032C82.8167 36.1264 82.6905 35.6847 82.5704 35.0663C82.5704 34.6363 82.8527 34.4243 83.4173 34.4243C84.012 34.4243 84.3723 34.654 84.4985 35.1134C84.6847 35.879 84.9069 36.6152 85.1532 37.322C85.5916 38.6118 85.904 39.931 86.0902 41.2798C86.1502 41.6802 86.2223 42.0631 86.3004 42.4282C86.3785 42.7934 86.6187 43.0113 87.0272 43.0702C87.2794 43.1291 87.4776 43.1939 87.6398 43.2528C87.796 43.3117 87.8741 43.559 87.8741 43.989L87.9221 44.3541C86.9491 44.8429 86.3244 45.0903 86.0481 45.0903L86.0421 45.1021ZM89.2796 47.3107C88.9973 47.3107 88.715 47.2518 88.4327 47.1281C87.838 46.8513 87.5077 46.3742 87.4476 45.7028C87.4476 45.4849 87.6218 45.0432 87.9642 44.3659L88.4807 44.3188L89.3276 44.3659C91.1716 44.3659 92.9074 43.7828 94.5352 42.6167C94.9076 42.3104 95.0998 41.8334 95.0998 41.1914L95.1478 41.0088C94.6493 40.7615 94.349 40.5966 94.2589 40.5023C93.8504 40.0429 93.3339 39.8133 92.7092 39.8133C91.4899 39.9075 90.661 40.3198 90.2226 41.056C89.8502 41.6096 89.4537 41.8864 89.0513 41.8864C88.8651 41.8864 88.6609 41.8098 88.4387 41.6567C88.0002 41.321 87.784 40.9382 87.784 40.5082C87.784 40.3551 87.814 40.1843 87.8801 40.0017C88.1624 39.3892 88.5828 38.9122 89.1474 38.5764C90.2406 37.9345 91.3698 37.6106 92.523 37.6106C93.8985 37.6106 94.8715 37.8874 95.4301 38.441L95.7605 38.7178C95.9767 38.3821 96.1689 37.799 96.3251 36.9686C96.5773 36.1087 96.6975 35.2371 96.6975 34.3477V34.0238C96.6975 33.0756 97.0578 32.5985 97.7786 32.5985C98.1871 32.5985 98.5234 32.7575 98.7877 33.0815C99.052 33.4054 99.1841 33.8118 99.1841 34.3006C99.1841 34.9426 98.4513 37.6459 96.9798 42.3988C96.7275 42.9818 96.6074 43.506 96.6074 43.9654L96.6554 44.6545C96.6554 45.2081 95.9046 45.5438 94.403 45.6675C92.8714 45.6969 91.4779 46.174 90.2286 47.0928C89.8862 47.2459 89.5739 47.3225 89.2916 47.3225L89.2796 47.3107ZM96.1749 32.5868C96.0488 32.5868 95.9226 32.5396 95.8025 32.4513C95.0817 31.8388 94.7214 31.1968 94.7214 30.5195C94.7214 30.3075 94.7514 30.0896 94.8175 29.8776C95.286 28.1578 95.6283 25.3661 95.8506 21.5026C96.1329 18.0042 96.289 15.6601 96.3191 14.4645C96.3191 13.0864 96.1148 12.1323 95.7064 11.614C95.1718 10.7247 94.9076 9.78822 94.9076 8.80467V8.48074L94.8595 8.34528C94.8595 8.09792 94.8775 7.86233 94.9076 7.63264C94.9376 7.40295 95.1418 7.28516 95.5202 7.28516C95.8025 7.28516 96.1929 7.42062 96.6915 7.69743C98.0669 8.71043 98.7577 11.2724 98.7577 15.3833C98.7577 16.6083 98.6796 17.8216 98.5234 19.0172C98.4273 19.6945 98.163 22.1622 97.7246 26.4263C97.2561 29.9247 96.9918 31.7976 96.9257 32.039C96.8656 32.4042 96.6134 32.5926 96.1749 32.5926V32.5868Z" fill="#282828"/>
<path d="M124.321 15.2238C124.309 15.4004 124.206 15.5595 124.02 15.7185C123.948 15.7774 123.87 15.8363 123.798 15.8893C123.732 15.9423 123.672 15.9953 123.606 16.0424C123.354 16.2368 123.089 16.3604 122.813 16.4076C121.75 16.5901 121.065 16.6137 120.795 16.4782C120.482 16.3251 120.398 15.742 120.362 15.5241V15.4534C120.32 15.2709 120.212 14.888 120.206 14.8822C120.206 14.8704 120.2 14.8645 120.2 14.8586C120.212 14.8233 120.284 14.7761 120.32 14.7467L120.362 14.7055C120.675 14.4287 121.059 14.1401 121.576 14.0694C121.756 14.0458 121.924 13.9811 122.086 13.9222C122.164 13.8868 122.242 13.8633 122.326 13.8397C122.459 13.7926 122.573 13.7926 122.663 13.8279C123.155 14.0105 123.702 14.2579 124.122 14.7172C124.273 14.888 124.345 15.0588 124.333 15.2296L124.321 15.2238Z" fill="#FFE888"/>
<path d="M122.524 18.2873C122.344 18.4286 122.146 18.6112 121.978 18.8409C121.846 19.0235 121.647 19.0883 121.449 19.1354C121.437 19.1354 121.431 19.1413 121.425 19.1413L120.789 19.3239C120.747 19.3415 120.68 19.3592 120.59 19.3828H120.566C120.032 19.53 119.587 19.4711 119.155 19.2002C118.662 18.8939 118.5 18.4404 118.662 17.8868C118.842 17.3273 119.179 16.9857 119.695 16.8502C119.755 16.8326 119.81 16.7972 119.846 16.7737C119.864 16.756 119.906 16.7266 119.918 16.7266C119.966 16.7501 120.002 16.809 120.044 16.862C120.068 16.8974 120.092 16.9209 120.11 16.9445C120.368 17.2566 120.704 17.4098 121.107 17.4098H121.125C121.491 17.4098 121.846 17.3862 122.116 17.3567C122.44 17.3391 122.596 17.4215 122.711 17.6866C122.795 17.8927 122.729 18.1047 122.518 18.2814L122.524 18.2873Z" fill="#F4D13D"/>
<path d="M118.008 19.359C118.008 19.359 117.996 19.3708 117.99 19.3767C117.84 19.5887 117.359 19.7595 117.005 19.8361C116.999 19.8361 116.987 19.842 116.969 19.842C116.843 19.895 116.692 19.9185 116.47 19.9185C115.761 20.0245 115.587 19.9303 115.581 19.9303C115.569 19.9126 115.545 19.895 115.521 19.8891C115.485 19.8832 115.437 19.8655 115.347 19.8302C114.957 19.6653 114.572 19.5004 114.188 19.3355C114.02 19.2707 113.978 19.2 113.978 19.1823C114.014 18.6051 114.596 17.8631 115.203 17.8513L115.605 17.8395C115.852 17.8277 116.086 17.8218 116.326 17.8159C116.47 17.8101 116.632 17.8218 116.765 17.8866C116.867 17.9337 116.951 17.9455 117.029 17.9102C117.119 17.8748 117.185 17.8042 117.239 17.6805L117.257 17.6275C117.275 17.5745 117.299 17.5156 117.323 17.4626C117.329 17.4449 117.335 17.4449 117.341 17.4508C117.335 17.5862 117.365 17.6923 117.443 17.7629C117.509 17.8395 117.617 17.8748 117.756 17.8689C117.653 18.293 117.798 18.6758 117.924 19.0174C117.948 19.0881 117.972 19.1705 117.984 19.253L117.996 19.3237L118.002 19.3472L118.008 19.359Z" fill="#FFE888"/>
<path d="M118.296 15.9838C117.834 16.4786 117.287 16.8025 116.681 16.9497C116.567 16.9851 116.446 16.9851 116.314 16.991C116.254 16.991 116.188 16.991 116.134 16.9969C115.852 16.9969 115.473 16.9733 115.119 16.7789C114.518 16.4373 114.404 15.5304 114.717 14.9826C114.885 14.6823 115.095 14.4879 115.371 14.3878C115.678 14.2759 116.008 14.2052 116.356 14.1816H116.41C116.621 14.1816 116.801 14.27 116.909 14.4467C117.125 14.8059 117.443 15.0003 117.906 15.0592C118.158 15.0827 118.35 15.2241 118.429 15.4243C118.501 15.6187 118.447 15.8248 118.29 15.9956L118.296 15.9838Z" fill="#F4D13D"/>
<path d="M120.975 13.3283C120.633 13.7346 120.183 13.9879 119.702 14.2588L119.66 14.2824C119.264 14.3707 118.945 14.3472 118.933 14.3472C118.495 14.3589 118.146 14.2765 117.834 14.0998C117.57 13.9584 117.366 13.5874 117.329 13.1987C117.311 12.9867 117.335 12.5803 117.702 12.2917C117.888 12.1386 118.062 12.0384 118.23 11.9678L118.345 11.9148C118.345 11.9148 118.591 11.7793 118.993 11.7793C119.017 11.7793 119.047 11.7852 119.071 11.7852C119.258 11.8087 119.444 11.8205 119.618 11.8264C119.756 11.8323 119.9 11.8323 120.044 11.8441C120.128 11.8559 120.195 11.8618 120.231 11.8676C120.237 11.8735 120.249 11.8794 120.267 11.8794C120.321 11.8912 120.501 11.9501 120.717 12.1445C120.969 12.3741 120.999 12.4566 121.035 12.5449C121.035 12.5567 121.041 12.5685 121.047 12.5803C121.24 12.8159 121.222 13.0279 120.975 13.3283Z" fill="#F4D13D"/>
<path d="M136.946 15.4313C136.88 15.2016 136.742 15.0544 136.52 14.9778C136.309 14.9072 136.105 14.8424 135.907 14.7482C135.21 14.4242 134.448 14.1062 133.631 13.959C133.09 13.8588 132.531 13.7705 131.997 13.688C131.474 13.6056 130.928 13.5231 130.399 13.4289C129.588 13.2816 128.723 13.2228 127.84 13.2522C128.321 12.9459 128.615 12.4924 128.838 12.092C128.91 11.9683 128.976 11.8387 129.042 11.715C129.114 11.5796 129.186 11.4441 129.264 11.3145C129.582 10.755 129.54 10.2662 129.12 9.78913C128.952 9.59478 128.753 9.52999 128.507 9.583C127.925 9.70079 127.336 9.88926 126.585 10.1778C126.345 10.2721 126.099 10.3545 125.858 10.4252C125.39 10.5783 124.903 10.7315 124.453 11.0142C124.459 11.0024 124.459 10.9906 124.465 10.9847L124.483 10.9435C124.615 10.6019 124.747 10.2662 124.879 9.92459C125.138 9.27674 125.402 8.60533 125.642 7.93392C125.828 7.41564 126.003 6.88557 126.171 6.37318C126.381 5.743 126.591 5.08926 126.825 4.45907C127.102 3.71699 127.036 3.04557 126.627 2.41539C126.525 2.26226 126.375 2.02668 126.075 1.99723C125.438 1.94423 124.933 2.13269 124.591 2.56852L124.495 2.68631C124.159 3.11036 123.81 3.54619 123.438 3.95257C123.065 4.35895 122.657 4.75355 122.267 5.13637C121.882 5.50153 121.492 5.88435 121.125 6.27895C121.113 6.29073 121.101 6.30251 121.089 6.31429C121.083 6.31429 121.083 6.32018 121.077 6.32018C120.993 6.06103 120.903 5.80778 120.813 5.55453C120.735 5.33662 120.657 5.1187 120.585 4.90079C120.435 4.47085 120.206 4.07625 119.906 3.73465C119.546 3.32827 119.131 3.26938 118.669 3.55208C117.99 3.97024 117.491 4.6122 117.149 5.51919C116.825 6.36729 116.825 7.25073 116.843 8.08705C116.849 8.19895 116.849 8.30496 116.849 8.41686C116.819 8.35208 116.795 8.28729 116.765 8.22251C116.608 7.84557 116.44 7.45097 116.182 7.10938C116.02 6.90324 115.858 6.703 115.69 6.49686C115.461 6.21416 115.227 5.92558 115.005 5.6311C114.326 4.69465 113.509 3.79355 112.362 2.70398C111.809 2.1857 111.209 1.65564 110.41 0.984225C110.32 0.91355 110.236 0.836986 110.152 0.766311C109.905 0.554287 109.653 0.336372 109.383 0.147906C109.281 0.0831209 108.986 -0.117124 108.71 0.0949001C108.296 0.418826 108.085 0.77809 108.061 1.19036C108.037 1.6203 108.091 2.05613 108.145 2.42717C108.224 2.93956 108.362 3.4284 108.542 4.01146C108.692 4.49441 108.86 5.0068 109.113 5.48975C109.317 5.86079 109.533 6.26717 109.677 6.703C109.815 7.12705 110.013 7.56877 110.296 8.09883C110.638 8.74079 111.035 9.35919 111.419 9.95993C111.587 10.225 111.755 10.4841 111.924 10.755C112.05 10.9494 112.176 11.1673 112.296 11.4088C112.254 11.3852 112.212 11.3616 112.164 11.344C111.113 10.8787 110.14 10.5842 109.191 10.4429C109.131 10.4311 109.064 10.4252 108.998 10.4193L108.872 10.4016C107.863 10.2485 106.944 10.2839 106.061 10.4959C105.917 10.5312 105.791 10.6019 105.677 10.702C105.359 10.9847 105.304 11.6326 105.569 12.0566C105.851 12.516 106.265 12.8576 106.662 13.1815L106.728 13.2345C106.8 13.2993 106.878 13.3641 106.95 13.4289C107.227 13.6645 107.515 13.9001 107.827 14.1121C107.581 14.065 107.341 14.0414 107.094 14.0414C106.181 14.0414 105.431 14.4478 104.86 15.2547C104.71 15.4667 104.65 15.6964 104.692 15.9084C104.734 16.1322 104.884 16.3324 105.124 16.4915C105.256 16.5798 105.407 16.6505 105.557 16.7212C105.911 16.8861 106.271 17.0392 106.62 17.1629C106.956 17.2866 107.245 17.4868 107.545 17.6988C107.635 17.7636 107.731 17.8284 107.821 17.8873C108.212 18.1464 108.614 18.2878 109.046 18.3172C109.107 18.3172 109.167 18.3231 109.227 18.329C109.335 18.3349 109.443 18.3467 109.545 18.3467C109.521 18.3643 109.503 18.382 109.479 18.3997C109.395 18.4527 109.311 18.5116 109.233 18.5705C108.536 19.1064 107.857 19.7484 107.034 20.6613C106.277 21.5035 105.701 22.4399 105.328 23.4412C104.914 24.5602 104.842 25.5673 105.112 26.5096C105.328 27.2635 105.479 27.6286 106.566 27.6934C107.208 27.7288 107.599 27.5167 107.839 27.0043C107.977 26.704 108.206 26.439 108.53 26.1916C108.848 25.956 109.149 25.6556 109.425 25.3023C109.995 24.5602 110.776 23.6061 111.719 22.7992C111.761 22.7639 111.809 22.7285 111.857 22.6991C111.875 22.6873 111.899 22.6696 111.918 22.6578L111.881 22.7874C111.815 23.0053 111.749 23.2291 111.695 23.4529C111.473 24.354 111.329 25.3082 111.275 26.2976C111.209 27.4991 111.227 28.4944 111.329 29.4367C111.377 29.8431 111.479 30.3673 111.833 30.8149L111.857 30.8443C111.942 30.9504 112.05 31.0799 112.23 31.0799H112.254C112.614 31.0505 113.077 30.9739 113.425 30.5911C113.515 30.491 113.605 30.3909 113.689 30.2907C113.779 30.1906 113.864 30.0905 113.954 29.9963L114.146 29.7842C114.56 29.3248 114.987 28.8478 115.323 28.3118C115.341 28.2824 115.353 28.2706 115.353 28.2647C115.359 28.2706 115.371 28.2824 115.383 28.3059C115.425 28.3766 115.479 28.4355 115.533 28.4944L115.563 28.5297C115.647 28.6181 115.726 28.6593 115.816 28.6652C115.894 28.6711 115.978 28.6299 116.056 28.5592C116.146 28.4767 116.236 28.4002 116.326 28.3236C116.681 28.0115 117.047 27.6934 117.275 27.2399C117.311 27.1751 117.359 27.1104 117.425 27.0456C117.443 27.022 117.84 26.4978 117.996 26.2034L118.008 26.1857C118.008 26.1857 118.02 26.1563 118.026 26.1504C118.254 25.6615 118.386 25.2139 118.434 24.7899C118.44 24.731 118.458 24.6839 118.507 24.625C118.549 24.5778 118.609 24.5072 118.657 24.4954C118.729 24.6485 119.227 25.6615 119.552 26.062C119.57 26.0856 119.588 26.1091 119.606 26.1327L119.648 26.1798C119.858 26.4507 120.074 26.7275 120.308 26.9867C120.993 27.7347 121.738 28.5239 122.633 29.1658C123.42 29.7312 124.201 30.0905 125.017 30.2554C125.54 30.3673 126.021 29.9727 126.123 29.5545C126.201 29.2247 126.141 28.9185 126.063 28.6063C125.991 28.3236 125.924 28.0409 125.858 27.7523C125.75 27.3047 125.642 26.8394 125.522 26.3859C125.27 25.4554 124.939 24.3776 124.345 23.3823L124.399 23.3999C124.483 23.4353 124.567 23.4647 124.657 23.5001L124.867 23.5766C125.3 23.7415 125.744 23.9064 126.201 24.0242C127.054 24.2363 127.895 24.2186 128.832 24.1715C129.402 24.1479 129.901 23.9477 130.315 23.5766C130.459 23.4529 130.495 23.3116 130.423 23.1349C130.369 22.9994 130.279 22.8993 130.183 22.8051L130.135 22.7462C129.985 22.5872 129.841 22.4282 129.69 22.2691C129.39 21.9511 129.078 21.6272 128.807 21.2797C128.729 21.1737 128.645 21.0736 128.567 20.9675C128.237 20.5376 127.895 20.0959 127.498 19.7013C127.39 19.5953 127.3 19.4716 127.204 19.342L127.132 19.2478C127.132 19.2478 127.126 19.236 127.12 19.236H127.132C127.69 19.2949 128.249 19.2713 128.832 19.1594C129.732 18.9945 130.627 18.8591 131.498 18.7354C131.721 18.7001 131.937 18.6706 132.159 18.6412C132.622 18.5764 133.102 18.5116 133.571 18.4174C133.787 18.3761 133.985 18.2937 134.183 18.2053C134.58 18.0228 134.916 17.8873 135.252 17.7872C135.649 17.6576 136.153 17.4574 136.514 17.0215C136.952 16.4974 137.096 15.9791 136.946 15.4313ZM125.997 11.1025L126.123 11.0613C126.333 10.9847 126.537 10.914 126.741 10.8434C127.246 10.6726 127.774 10.49 128.279 10.278C128.381 10.2309 128.477 10.2309 128.549 10.278C128.639 10.3369 128.693 10.4723 128.693 10.6372C128.693 10.7786 128.585 10.9553 128.513 11.0731C128.189 11.6208 127.804 12.2569 127.366 12.8399C127.168 13.1167 126.891 13.2993 126.543 13.3877C126.423 13.423 126.303 13.4524 126.183 13.4819C125.81 13.5702 125.432 13.6586 125.078 13.8353C124.489 14.1356 124.062 14.4419 123.732 14.807L123.702 14.8424L123.648 14.8954C123.486 15.0603 123.486 15.0662 123.324 14.9248C122.879 14.5597 122.495 14.3477 122.092 14.2358C122.098 14.2299 122.104 14.2299 122.11 14.224C122.236 14.1297 122.357 14.0355 122.483 13.9413L122.723 13.7646C122.945 13.5938 123.137 13.3877 123.318 13.1874C123.432 13.0637 123.552 12.9401 123.672 12.8223C123.744 12.7575 123.822 12.6986 123.9 12.6397C124.062 12.516 124.225 12.3923 124.327 12.2156C124.693 11.5619 125.33 11.3381 125.997 11.1025ZM117.419 15.8201C117.648 15.8436 117.822 15.9673 117.894 16.1499C117.96 16.3266 117.912 16.515 117.768 16.6682C117.347 17.1158 116.855 17.4102 116.302 17.5457C116.2 17.5751 116.092 17.5751 115.972 17.581C115.918 17.581 115.858 17.581 115.81 17.5869C115.551 17.5869 115.209 17.5634 114.891 17.3867C114.344 17.0745 114.242 16.2559 114.524 15.7553C114.674 15.4843 114.867 15.3077 115.119 15.2134C115.395 15.1133 115.696 15.0485 116.014 15.025H116.062C116.254 15.025 116.416 15.1074 116.512 15.2664C116.711 15.5904 116.999 15.767 117.419 15.8201ZM117.233 13.317C117.401 13.1756 117.558 13.0873 117.714 13.0225L117.816 12.9754C117.816 12.9754 118.038 12.8517 118.404 12.8517C118.428 12.8517 118.452 12.8576 118.476 12.8576C118.645 12.8812 118.813 12.887 118.975 12.8929C119.101 12.8929 119.233 12.8929 119.359 12.9106C119.438 12.9224 119.498 12.9283 119.528 12.9342C119.528 12.9342 119.546 12.9459 119.558 12.9459C119.606 12.9577 119.768 13.0107 119.966 13.1874C120.194 13.3936 120.224 13.4701 120.254 13.5526C120.254 13.5643 120.26 13.5761 120.266 13.582C120.441 13.794 120.423 13.9884 120.2 14.2593C119.888 14.6304 119.48 14.8601 119.047 15.1015L119.011 15.1251C118.651 15.2075 118.362 15.184 118.35 15.184C117.954 15.1958 117.636 15.1192 117.353 14.9602C117.113 14.8306 116.927 14.4949 116.897 14.1415C116.879 13.9472 116.903 13.582 117.233 13.317ZM118.278 16.8448C118.434 16.5327 118.482 16.2559 118.434 15.9732C118.428 15.9437 118.428 15.932 118.422 15.9261H118.476C118.513 15.9261 118.555 15.932 118.591 15.9202C118.825 15.9202 118.861 15.9437 118.927 16.144C118.975 16.2794 119.011 16.4208 119.041 16.5621L119.071 16.6917C119.083 16.727 119.077 16.7565 119.023 16.7801L118.969 16.8036C118.873 16.8507 118.777 16.8978 118.681 16.9214C118.374 16.998 118.116 17.157 117.882 17.3985L117.852 17.4279C117.78 17.5045 117.714 17.5751 117.624 17.6105C117.918 17.3985 118.14 17.1393 118.278 16.8448ZM118.098 18.3938C118.26 17.8873 118.567 17.5751 119.035 17.4515C119.089 17.4338 119.137 17.4043 119.173 17.3808C119.191 17.3631 119.227 17.3396 119.239 17.3396C119.281 17.3631 119.317 17.4161 119.353 17.4632C119.377 17.4927 119.395 17.5163 119.413 17.5398C119.648 17.8225 119.954 17.9639 120.32 17.9639H120.338C120.669 17.9639 120.993 17.9403 121.239 17.9167C121.534 17.8991 121.678 17.9756 121.78 18.2171C121.858 18.4056 121.798 18.594 121.606 18.7589C121.444 18.8885 121.263 19.0534 121.107 19.2596C120.987 19.4245 120.807 19.4834 120.627 19.5246C120.615 19.5246 120.609 19.5305 120.603 19.5305L120.026 19.6954C119.99 19.7131 119.93 19.7248 119.846 19.7484H119.822C119.335 19.8839 118.933 19.8309 118.543 19.5835C118.098 19.3067 117.948 18.8944 118.098 18.3938ZM120.032 17.1158C119.75 16.9744 119.672 16.4502 119.642 16.25V16.1852C119.606 16.0203 119.504 15.6728 119.498 15.6669C119.498 15.6551 119.498 15.6493 119.498 15.6434C119.51 15.6139 119.576 15.5668 119.606 15.5432L119.642 15.5079C119.924 15.2547 120.272 14.9955 120.741 14.9307C120.903 14.9072 121.059 14.8483 121.203 14.7953C121.275 14.7658 121.348 14.7423 121.42 14.7187C121.54 14.6775 121.642 14.6775 121.726 14.7069C122.17 14.8718 122.669 15.0956 123.047 15.5138C123.186 15.6669 123.252 15.8259 123.24 15.9791C123.228 16.1381 123.137 16.2853 122.969 16.4267C122.903 16.4797 122.831 16.5327 122.765 16.5798C122.705 16.6269 122.651 16.674 122.591 16.7212C122.363 16.8978 122.122 17.0097 121.87 17.051C120.903 17.2159 120.284 17.2394 120.038 17.1158H120.032ZM122.14 18.7001C122.158 18.6235 122.188 18.541 122.23 18.4645C122.303 18.3408 122.381 18.1818 122.381 17.9874C122.381 17.8932 122.363 17.7931 122.315 17.687C122.477 17.5693 122.633 17.4574 122.789 17.3337C122.855 17.2866 122.927 17.2689 122.999 17.2924C123.107 17.316 123.186 17.3867 123.222 17.4986C123.222 17.4986 123.282 17.6105 123.288 17.8107C123.288 18.011 123.234 18.1641 123.125 18.2583C123.113 18.2642 123.107 18.2701 123.095 18.276C123.095 18.276 123.077 18.2937 123.065 18.2996C122.999 18.3467 122.933 18.3997 122.867 18.4468C122.699 18.5823 122.531 18.7059 122.327 18.7472L122.2 18.7648C122.152 18.7766 122.14 18.7589 122.14 18.7589C122.14 18.7589 122.128 18.7472 122.14 18.7001ZM120.729 7.74545C120.729 7.74545 120.759 7.72189 120.765 7.71011L121.384 6.95625L121.492 6.85024L122.309 6.0787C122.477 5.89613 122.657 5.72533 122.837 5.56042C123.035 5.38373 123.234 5.19527 123.414 4.99502C123.642 4.74177 123.876 4.49441 124.11 4.25294C124.207 4.15281 124.303 4.0468 124.399 3.94668C124.627 3.70521 124.807 3.44607 124.945 3.18104C125.09 2.89834 125.552 2.63331 125.882 2.65097C125.93 2.65686 125.96 2.67453 125.997 2.73343C126.195 3.0338 126.291 3.32238 126.291 3.62275C126.291 3.82889 126.249 4.02324 126.165 4.20582C125.798 5.04803 125.528 5.93735 125.27 6.79723C125.216 6.96803 125.162 7.13883 125.114 7.30962C124.711 8.61122 124.207 10.1425 123.534 11.5855C123.27 12.1626 123.011 12.675 122.579 13.0873C122.423 13.2404 122.242 13.4112 122.038 13.5349C121.756 13.6998 121.474 13.9001 121.203 14.1356C121.071 14.2475 120.915 14.2711 120.741 14.2947C120.759 14.2299 120.783 14.171 120.813 14.1121C121.035 13.582 120.939 13.2169 120.483 12.8576C120.194 12.6338 119.882 12.4041 119.468 12.357C119.347 12.3393 119.257 12.251 119.179 12.0684C118.987 11.6267 118.939 11.1732 119.035 10.7315C119.239 9.8068 119.678 8.96459 120.326 8.2284C120.423 8.12827 120.507 8.01637 120.573 7.90447C120.615 7.8338 120.669 7.7749 120.729 7.74545ZM117.353 7.98692C117.353 7.84558 117.365 7.70423 117.365 7.56288C117.377 7.48631 117.431 7.11527 117.491 6.77956L117.521 6.59699C117.636 5.97858 117.75 5.39551 118.152 4.90668C118.404 4.60042 118.711 4.35895 119.065 4.19404C119.179 4.13515 119.359 4.09392 119.576 4.34128C119.726 4.51797 119.852 4.7241 119.942 4.96558C120.098 5.37784 120.248 5.79011 120.399 6.20827L120.525 6.56754C120.603 6.76778 120.573 6.90913 120.435 7.05637C120.02 7.50987 119.504 8.07527 119.125 8.70545C118.639 9.5241 118.368 10.2367 118.278 10.9435C118.212 11.45 118.284 11.9212 118.501 12.3275C118.507 12.3452 118.519 12.3629 118.519 12.3747H118.482C118.398 12.3688 118.32 12.3805 118.23 12.3864C118.194 12.3923 118.158 12.3923 118.098 12.4041C118.056 12.41 118.044 12.41 118.044 12.41C118.044 12.41 118.032 12.3864 118.032 12.3216C118.032 11.8387 117.948 11.3675 117.774 10.8787C117.521 10.1778 117.425 9.43576 117.359 8.79969C117.335 8.53465 117.347 8.25196 117.359 7.98692H117.353ZM106.728 12.2156C106.542 12.0566 106.368 11.8682 106.217 11.6561C106.133 11.5501 106.103 11.4618 106.127 11.3911C106.145 11.3204 106.223 11.2556 106.356 11.1967C106.902 10.9788 107.491 10.8551 108.115 10.8434C108.157 10.8434 108.194 10.8375 108.23 10.8375C108.884 10.8375 109.575 10.9788 110.374 11.2615C110.506 11.3086 110.632 11.3558 110.758 11.397C111.101 11.5148 111.455 11.6326 111.785 11.8034C112.23 12.0213 112.632 12.3216 113.017 12.6102C113.101 12.675 113.179 12.7339 113.263 12.7928C113.341 12.8517 113.425 12.9165 113.503 12.9754C113.671 13.105 113.846 13.2345 114.026 13.3523C114.374 13.5879 114.747 13.7116 115.143 13.7234H115.371C115.539 13.7351 115.714 13.7351 115.888 13.7351C115.99 13.7351 116.08 13.688 116.122 13.6115C116.164 13.5408 116.158 13.4407 116.098 13.3464C116.008 13.1992 115.87 13.1109 115.708 13.105C114.783 13.052 114.17 12.4983 113.641 11.9094C113.251 11.4794 112.963 10.9729 112.68 10.4782L112.632 10.3958C112.272 9.76558 111.863 9.14128 111.473 8.54054C111.353 8.35797 111.233 8.17539 111.113 7.98692C110.95 7.73367 110.824 7.48042 110.74 7.23306C110.56 6.67944 110.314 6.14349 110.074 5.6311C109.983 5.44263 109.893 5.24827 109.809 5.05981C109.659 4.7241 109.533 4.37662 109.413 4.03502L109.305 3.71699C109.173 3.35772 109.088 2.99846 108.998 2.59208C108.896 2.15036 108.854 1.67919 108.866 1.14913C108.866 1.04312 108.884 0.954777 108.92 0.872323C108.956 0.78398 108.986 0.766311 109.004 0.760422C109.016 0.760422 109.046 0.760422 109.125 0.807538C109.341 0.942998 109.551 1.1138 109.749 1.27281C109.821 1.33171 109.893 1.39061 109.959 1.4495C111.233 2.4684 112.164 3.29883 112.969 4.1587C113.653 4.87723 114.332 5.6841 115.125 6.69122C115.996 7.81024 116.488 9.07061 116.861 10.1602C116.909 10.3015 116.957 10.4429 117.011 10.5783C117.143 10.9317 117.281 11.2969 117.335 11.6738C117.359 11.8623 117.383 12.0625 117.371 12.2686C117.353 12.5926 117.203 12.8282 116.933 12.9636C116.314 13.2816 116.278 13.8412 116.308 14.2299V14.2652C116.314 14.3241 116.32 14.383 116.314 14.3948C116.302 14.4066 116.224 14.4242 116.164 14.4301C115.491 14.5479 114.963 14.7305 114.506 15.0132C114.398 15.0721 114.326 15.1428 114.266 15.2252C114.14 15.4137 113.948 15.5138 113.683 15.5256C113.197 15.5491 112.758 15.5079 112.35 15.3901C112.176 15.3371 112.008 15.29 111.833 15.2429C111.473 15.1428 111.101 15.0367 110.74 14.919C110.116 14.7069 109.497 14.3594 108.836 13.8588L108.464 13.582C107.887 13.1462 107.287 12.6927 106.728 12.2156ZM109.1 17.6164C108.578 17.6046 108.188 17.2983 107.863 17.0156C107.863 17.0156 107.851 17.0039 107.845 17.0039C107.671 16.8272 107.19 16.621 106.806 16.4679C106.8 16.4679 106.788 16.462 106.782 16.462C106.626 16.4267 106.476 16.3796 106.326 16.3089C106.109 16.2029 105.869 16.1028 105.593 16.0026C105.509 15.9732 105.455 15.9378 105.443 15.9025C105.425 15.8672 105.443 15.8024 105.485 15.7199C105.647 15.4019 105.917 15.1545 106.362 14.919C106.626 14.7835 106.926 14.7069 107.19 14.7069H107.263C107.575 14.7069 107.785 14.7482 107.965 14.8542C108.32 15.0544 108.71 15.1369 109.088 15.2075L109.203 15.2311C109.485 15.29 109.755 15.4078 110.013 15.5197C110.092 15.555 110.176 15.5904 110.254 15.6198C111.233 16.0321 112.29 16.2618 113.395 16.3089H113.449C113.449 16.3089 113.491 16.3089 113.503 16.3148C113.551 16.3266 113.599 16.3207 113.647 16.3148C113.731 16.3089 113.737 16.3148 113.749 16.3501C113.81 16.5032 113.749 16.7094 113.641 16.7977C113.521 16.892 113.371 16.9096 113.209 16.9273H113.161C112.83 16.9744 112.554 17.0451 112.308 17.1393C111.972 17.2748 111.635 17.4043 111.299 17.5339C111.035 17.634 110.776 17.7401 110.512 17.8402C110.452 17.8637 110.422 17.8696 110.392 17.8578C109.971 17.6694 109.521 17.6282 109.1 17.6164ZM111.437 22.0277C110.53 22.7756 109.761 23.6591 109.125 24.4188C108.722 24.9136 108.272 25.367 107.845 25.7793C107.515 26.0974 107.257 26.4154 107.064 26.7452C106.95 26.9337 106.806 27.0161 106.602 26.9926C106.043 26.9396 105.917 26.8807 105.797 26.3624C105.725 26.0326 105.707 25.6969 105.701 25.2964C105.677 24.7663 105.869 24.1774 106.043 23.7239C106.5 22.4988 107.299 21.368 108.47 20.2549C109.455 19.3243 110.44 18.6529 111.485 18.1877C112.182 17.8814 112.782 17.7224 113.371 17.687C113.431 17.687 113.503 17.687 113.569 17.6517C113.629 17.6223 113.683 17.6105 113.743 17.6105C113.858 17.6105 113.972 17.6694 114.122 17.8048C114.2 17.8755 114.29 17.9521 114.29 17.9815C114.29 18.011 114.194 18.1052 114.122 18.17C113.858 18.4232 113.635 18.7059 113.467 19.0063C113.119 19.6306 113.179 20.09 113.671 20.5906C113.701 20.6201 113.707 20.6318 113.713 20.6377C113.707 20.6377 113.701 20.6495 113.671 20.6731C113.593 20.7261 113.503 20.7732 113.389 20.8144C112.62 21.0912 111.978 21.5859 111.437 22.0277ZM114.65 28.0527C114.554 28.1646 114.464 28.2883 114.38 28.4061C114.338 28.465 114.296 28.5239 114.248 28.5828C113.822 29.1423 113.377 29.6488 112.921 30.1023C112.861 30.1612 112.788 30.2201 112.698 30.2848C112.53 30.3967 112.476 30.3909 112.356 30.2318C112.2 30.0316 112.104 29.7901 112.062 29.4956C112.008 29.154 111.996 28.8007 111.978 28.4591C111.966 28.2117 111.954 27.9643 111.93 27.717C111.887 27.1339 111.905 26.5332 111.984 25.9266C112.008 25.7204 112.032 25.5143 112.056 25.3023C112.122 24.6721 112.194 24.0183 112.374 23.394C112.554 22.7815 112.776 22.3221 113.089 21.9511C113.233 21.7685 113.389 21.6566 113.569 21.5977C113.912 21.4917 114.17 21.2797 114.41 21.0736C114.512 20.9793 114.602 20.9381 114.698 20.9381C114.728 20.9381 114.759 20.944 114.795 20.9558C114.891 20.9793 114.903 21.0205 114.891 21.0853C114.885 21.1207 114.879 21.156 114.873 21.1913C114.867 21.2502 114.855 21.3091 114.837 21.368C114.692 21.8628 114.638 22.3634 114.602 22.9641C114.566 23.6237 114.548 24.1656 114.548 24.6721C114.554 25.4495 114.662 26.1857 114.867 26.863C115.017 27.3459 114.951 27.7111 114.65 28.0527ZM115.095 20.1666C114.741 20.0193 114.392 19.8662 114.044 19.719C113.894 19.6601 113.852 19.5953 113.852 19.5776C113.882 19.0534 114.41 18.382 114.963 18.3702L115.329 18.3585C115.551 18.3467 115.768 18.3408 115.984 18.3349C116.116 18.329 116.26 18.3408 116.38 18.3997C116.47 18.4409 116.548 18.4527 116.621 18.4232C116.705 18.3938 116.765 18.329 116.813 18.2171L116.831 18.17C116.849 18.1229 116.867 18.0699 116.891 18.0228C116.897 18.0051 116.903 18.0051 116.909 18.011C116.909 18.1347 116.933 18.2289 116.999 18.2937C117.059 18.3643 117.155 18.3938 117.281 18.3879C117.191 18.7707 117.317 19.1182 117.431 19.4304C117.455 19.4951 117.473 19.5717 117.485 19.6424L117.497 19.7072L117.503 19.7307C117.497 19.7366 117.491 19.7425 117.485 19.7484C117.347 19.9428 116.915 20.0959 116.59 20.1666C116.584 20.1666 116.572 20.1724 116.56 20.1724C116.446 20.2196 116.308 20.2431 116.11 20.2431C115.467 20.3374 115.311 20.2549 115.305 20.2549C115.293 20.2372 115.275 20.2255 115.251 20.2196C115.221 20.2137 115.173 20.196 115.095 20.1666ZM117.702 25.0902C117.323 26.0385 116.783 26.8807 116.086 27.5933C116.08 27.5933 116.068 27.611 116.068 27.611C116.044 27.6286 116.026 27.6522 116.002 27.6699C115.978 27.6993 115.924 27.7464 115.912 27.7523C115.882 27.7347 115.864 27.7111 115.852 27.6817C115.852 27.664 115.852 27.6699 115.84 27.6581C115.726 27.4225 115.581 26.81 115.533 26.6215C115.341 25.8323 115.251 25.0313 115.275 24.2421C115.281 24.0478 115.281 23.8534 115.281 23.6591C115.281 23.341 115.281 23.0171 115.305 22.6991C115.347 22.1631 115.491 21.639 115.617 21.2443C115.678 21.0618 115.75 21.0205 116.014 21.0205H116.098C116.224 21.0323 116.362 21.0382 116.38 21.0559C116.392 21.0736 116.386 21.1619 116.386 21.2385C116.38 21.2797 116.38 21.3268 116.38 21.3739C116.356 22.2279 116.687 22.9759 117.035 23.6767C117.041 23.6944 117.053 23.718 117.065 23.7356C117.095 23.7769 117.119 23.8181 117.131 23.8652C117.191 24.0655 117.335 24.1891 117.449 24.2716C117.768 24.5013 117.84 24.7369 117.702 25.0902ZM118.705 22.8581L118.651 22.9759C118.525 23.2586 118.392 23.5472 118.194 23.7945C118.14 23.8652 118.074 23.9005 118.014 23.9005H118.002C117.942 23.8947 117.888 23.8534 117.852 23.7828C117.521 23.1408 117.179 22.4753 117.035 21.7391C116.933 21.1913 117.047 20.8144 117.413 20.5258C117.479 20.4728 117.539 20.4198 117.6 20.3668C117.654 20.3138 117.702 20.2667 117.762 20.2196C117.81 20.1842 117.852 20.1666 117.9 20.1666C117.942 20.1666 117.99 20.1842 118.032 20.2255C118.194 20.3727 118.374 20.461 118.609 20.5023C118.837 20.5435 118.969 20.6966 119.005 20.9616C119.017 21.0677 119.029 21.1855 119.035 21.2974C119.041 21.3563 119.047 21.421 119.047 21.474C119.071 21.9923 118.891 22.4635 118.705 22.8581ZM125.288 28.2117L125.312 28.3177C125.39 28.6475 125.462 28.9538 125.498 29.2542C125.498 29.3955 125.456 29.5015 125.378 29.5604C125.306 29.6075 125.21 29.6134 125.096 29.5781C124.753 29.4662 124.393 29.3425 123.948 29.1835C123.732 29.1069 123.534 28.9832 123.294 28.783C123.077 28.5945 122.849 28.4178 122.627 28.2412C122.182 27.8937 121.726 27.5285 121.342 27.0986C120.639 26.2976 120.02 25.5614 119.54 24.7015C119.419 24.4777 119.347 24.2363 119.269 23.983C119.227 23.824 119.179 23.6591 119.113 23.5059C119.095 23.4412 119.131 23.3646 119.155 23.3293C119.57 22.6578 119.726 21.8863 119.66 20.838C119.642 20.5553 119.678 20.5082 119.972 20.4434C120.08 20.4139 120.194 20.3963 120.308 20.3727C120.393 20.3609 120.483 20.3432 120.567 20.3256C120.771 20.2843 120.945 20.1842 121.119 20.0841L121.191 20.0488C121.191 20.0488 121.215 20.0311 121.221 20.0311C121.221 20.0311 121.221 20.035 121.221 20.0429C121.354 20.5847 121.678 21.0205 121.996 21.4387L122.044 21.5094C122.218 21.7332 122.381 21.9452 122.513 22.1808C122.561 22.2632 122.615 22.3457 122.705 22.3987C123.228 22.705 123.48 23.2056 123.744 23.7297C124.363 24.9607 124.837 26.3447 125.282 28.2117H125.288ZM127.228 20.3256C127.228 20.3256 127.228 20.3315 127.24 20.3374C127.552 20.6907 127.84 21.0735 128.111 21.4505L128.285 21.6802C128.705 22.2574 129.084 22.705 129.462 23.0878C129.54 23.1643 129.564 23.1997 129.564 23.1997C129.552 23.2232 129.444 23.2704 129.408 23.288C129.054 23.4647 128.663 23.5059 128.195 23.5118H128.159C126.687 23.5118 125.408 23.2056 124.243 22.5872C123.804 22.3516 123.306 22.0866 122.903 21.7037C122.765 21.5683 122.675 21.4034 122.573 21.2326C122.513 21.1383 122.459 21.0382 122.387 20.944C122.273 20.785 122.17 20.6201 122.062 20.4551C122.002 20.3609 121.942 20.2726 121.882 20.1783C121.804 20.0664 121.75 19.931 121.72 19.7778C121.684 19.5717 121.75 19.4598 121.942 19.395C122.044 19.3597 122.146 19.342 122.236 19.342C122.591 19.3243 122.927 19.2007 123.288 18.9592C123.306 18.9474 123.324 18.9356 123.336 18.9239L123.402 18.8591C123.432 18.8355 123.546 18.7766 123.918 18.7766C124.02 18.7766 124.147 18.7825 124.297 18.7943H124.321C124.963 18.8002 125.492 18.8591 125.984 19.1064C126.117 19.1712 126.237 19.2596 126.357 19.3479C126.417 19.395 126.483 19.4421 126.555 19.4951L126.585 19.5305C126.958 19.9899 127.174 20.2608 127.228 20.3256ZM136.147 16.3207C135.943 16.6328 135.661 16.8743 135.306 17.0333C134.165 17.5339 133.144 17.8755 132.177 18.0758C131.691 18.1759 131.186 18.2348 130.682 18.2466C129.997 18.2701 129.342 18.4174 128.735 18.5764C128.207 18.7118 127.678 18.6588 127.228 18.594C126.729 18.5293 126.237 18.3997 125.756 18.2819C125.48 18.2112 125.21 18.1405 124.933 18.0816C124.819 18.0581 124.699 18.0345 124.585 18.011C124.453 17.9815 124.315 17.9521 124.183 17.9226C124.008 17.8814 123.924 17.7872 123.918 17.6282C123.912 17.3572 123.864 16.9744 123.492 16.7094C123.486 16.7035 123.468 16.6917 123.468 16.6799C123.462 16.6682 123.474 16.6446 123.492 16.6269C123.72 16.3619 123.762 16.0321 123.774 15.7494C123.774 15.5609 123.852 15.4313 124.014 15.3194C124.129 15.2429 124.237 15.1604 124.351 15.078C124.507 14.9543 124.669 14.8306 124.831 14.7305C125.486 14.3359 126.225 14.1533 126.867 14.0237C127.234 13.9472 127.6 13.9118 127.961 13.9059C128.339 13.9472 128.723 13.9648 129.096 13.9766C129.817 14.0061 130.561 14.0355 131.264 14.2593C131.637 14.3712 132.015 14.3948 132.381 14.4124C132.549 14.4242 132.724 14.4301 132.892 14.4478C133.246 14.489 133.607 14.5656 133.949 14.6363C134.087 14.6657 134.225 14.6951 134.357 14.7187C134.405 14.7305 134.454 14.7482 134.49 14.7776C134.904 15.0721 135.354 15.2252 135.829 15.3783C136.063 15.4549 136.219 15.5727 136.279 15.7317C136.34 15.8966 136.291 16.0969 136.147 16.3207Z" fill="#282828"/>
<path d="M128.663 10.6192C128.657 10.7606 128.56 10.9372 128.488 11.055C128.158 11.6028 127.774 12.2388 127.335 12.8219C127.137 13.0987 126.861 13.2813 126.512 13.3696C126.392 13.405 126.272 13.4344 126.152 13.4639C125.785 13.5522 125.401 13.6406 125.047 13.8172C124.464 14.1176 124.032 14.4239 123.701 14.789L123.671 14.8244C123.671 14.8244 123.641 14.8597 123.617 14.8774C123.455 15.0423 123.455 15.0482 123.293 14.9068C122.848 14.5417 122.464 14.3296 122.062 14.2177C122.062 14.2118 122.074 14.2118 122.08 14.206C122.206 14.1117 122.332 14.0175 122.452 13.9233L122.692 13.7466C122.92 13.5758 123.107 13.3696 123.293 13.1694C123.401 13.0457 123.521 12.922 123.641 12.8042C123.713 12.7395 123.791 12.6806 123.869 12.6217C124.032 12.498 124.2 12.3743 124.296 12.1976C124.662 11.5439 125.299 11.3201 125.972 11.0845L126.098 11.0433C126.302 10.9667 126.506 10.896 126.71 10.8253C127.221 10.6545 127.744 10.472 128.248 10.2599C128.35 10.2128 128.446 10.2128 128.518 10.2599C128.609 10.3188 128.663 10.4543 128.663 10.6192Z" fill="#EFEDE4"/>
<path d="M136.123 16.3034C135.913 16.6155 135.63 16.857 135.276 17.016C134.141 17.5166 133.114 17.8582 132.147 18.0585C131.66 18.1586 131.156 18.2175 130.651 18.2293C129.966 18.2528 129.312 18.4001 128.705 18.5591C128.177 18.6946 127.648 18.6416 127.198 18.5768C126.699 18.512 126.206 18.3824 125.726 18.2646C125.45 18.1939 125.179 18.1233 124.903 18.0644C124.789 18.0408 124.675 18.0173 124.555 17.9937C124.423 17.9643 124.284 17.9348 124.152 17.9054C123.978 17.8641 123.894 17.7699 123.888 17.6109C123.882 17.34 123.834 16.9571 123.462 16.6921C123.462 16.6862 123.438 16.6744 123.438 16.6627C123.438 16.6509 123.444 16.6273 123.462 16.6097C123.696 16.3446 123.732 16.0148 123.744 15.7321C123.75 15.5436 123.828 15.4141 123.984 15.3022C124.098 15.2256 124.212 15.1432 124.32 15.0607C124.477 14.937 124.639 14.8133 124.807 14.7132C125.456 14.3186 126.2 14.136 126.837 14.0065C127.204 13.9299 127.576 13.8946 127.93 13.8887C128.309 13.9299 128.693 13.9476 129.066 13.9593C129.786 13.9888 130.531 14.0182 131.234 14.242C131.612 14.3539 131.985 14.3775 132.351 14.3952C132.519 14.407 132.693 14.4128 132.862 14.4305C133.216 14.4717 133.576 14.5483 133.919 14.619C134.057 14.6484 134.195 14.6779 134.327 14.7014C134.375 14.7132 134.423 14.7309 134.459 14.7603C134.874 15.0548 135.33 15.2079 135.799 15.3611C136.033 15.4376 136.189 15.5554 136.249 15.7144C136.309 15.8793 136.267 16.0796 136.123 16.3034Z" fill="white"/>
<path d="M129.54 23.1809C129.54 23.1809 129.414 23.2516 129.378 23.2692C129.024 23.4459 128.633 23.4871 128.165 23.493H128.129C126.657 23.493 125.378 23.1868 124.213 22.5684C123.774 22.3328 123.276 22.0678 122.873 21.6849C122.735 21.5495 122.645 21.3846 122.543 21.2138C122.489 21.1195 122.429 21.0194 122.363 20.9252C122.249 20.7662 122.14 20.6012 122.032 20.4363C121.972 20.3421 121.912 20.2538 121.852 20.1595C121.774 20.0476 121.72 19.9122 121.696 19.759C121.66 19.5529 121.726 19.441 121.912 19.3762C122.014 19.3409 122.116 19.3232 122.207 19.3232C122.561 19.3055 122.897 19.1819 123.258 18.9404C123.282 18.9286 123.294 18.9168 123.306 18.9051L123.324 18.8874L123.372 18.8403C123.372 18.8403 123.516 18.7578 123.888 18.7578C123.99 18.7578 124.117 18.7637 124.267 18.7755H124.291C124.933 18.7814 125.462 18.8403 125.961 19.0876C126.093 19.1524 126.207 19.2408 126.327 19.3291C126.393 19.3762 126.453 19.4233 126.525 19.4763L126.555 19.5117C126.928 19.9711 127.144 20.242 127.198 20.3068C127.204 20.3068 127.204 20.3127 127.21 20.3185C127.522 20.6719 127.81 21.0547 128.081 21.4317L128.255 21.6614C128.675 22.2385 129.054 22.6862 129.432 23.069C129.51 23.1455 129.534 23.1809 129.54 23.1809Z" fill="#F4F4F4"/>
<path d="M125.468 29.2367C125.468 29.3781 125.426 29.4841 125.348 29.543C125.276 29.5901 125.179 29.596 125.065 29.5607C124.723 29.4488 124.363 29.3251 123.918 29.1661C123.702 29.0895 123.504 28.9658 123.263 28.7656C123.047 28.5771 122.819 28.4004 122.603 28.2237C122.152 27.8762 121.696 27.5111 121.311 27.0812C120.609 26.2802 119.99 25.544 119.509 24.6841C119.389 24.4603 119.317 24.2188 119.245 23.9656C119.197 23.8066 119.149 23.6416 119.089 23.4885C119.065 23.4237 119.101 23.3472 119.125 23.3118C119.545 22.6404 119.702 21.8689 119.63 20.8205C119.612 20.5378 119.648 20.4907 119.942 20.4259C120.05 20.3965 120.164 20.3788 120.278 20.3553C120.362 20.3435 120.452 20.3258 120.537 20.3082C120.741 20.2669 120.921 20.1668 121.089 20.0667L121.161 20.0313C121.161 20.0313 121.185 20.0137 121.191 20.0137C121.191 20.0196 121.197 20.0196 121.197 20.0255C121.329 20.5673 121.654 21.0031 121.972 21.4213L122.02 21.492C122.194 21.7158 122.356 21.9278 122.489 22.1634C122.537 22.2458 122.591 22.3283 122.681 22.3813C123.203 22.6875 123.456 23.1881 123.72 23.7123C124.345 24.9432 124.813 26.3273 125.258 28.1943L125.282 28.3003C125.36 28.6301 125.432 28.9364 125.468 29.2367Z" fill="#F4F4F4"/>
<path d="M119.023 21.4559C119.041 21.9742 118.861 22.4454 118.674 22.84L118.62 22.9578C118.494 23.2405 118.362 23.5291 118.164 23.7764C118.116 23.8471 118.05 23.8824 117.984 23.8824H117.972C117.912 23.8765 117.858 23.8353 117.822 23.7646C117.491 23.1227 117.149 22.4572 117.011 21.721C116.903 21.1732 117.017 20.7963 117.383 20.5077C117.449 20.4547 117.509 20.4017 117.569 20.3487C117.623 20.2957 117.677 20.2486 117.731 20.2014C117.78 20.1661 117.828 20.1484 117.87 20.1484C117.918 20.1484 117.96 20.1661 118.002 20.2073C118.164 20.3546 118.35 20.4429 118.578 20.4841C118.813 20.5254 118.939 20.6785 118.975 20.9435C118.993 21.0495 118.999 21.1673 119.005 21.2792C119.011 21.3381 119.017 21.4029 119.023 21.4559Z" fill="#EFEDE4"/>
<path d="M117.672 25.0716C117.299 26.0199 116.753 26.8621 116.056 27.5747C116.05 27.5747 116.038 27.5924 116.038 27.5924C116.014 27.6101 115.996 27.6336 115.978 27.6513C115.948 27.6807 115.9 27.7278 115.888 27.7337C115.852 27.7161 115.834 27.6925 115.828 27.6631C115.822 27.6454 115.828 27.6513 115.816 27.6395C115.695 27.4039 115.551 26.7914 115.509 26.6029C115.311 25.8137 115.221 25.0128 115.245 24.2235C115.251 24.0292 115.251 23.8348 115.251 23.6405C115.251 23.3224 115.251 22.9985 115.275 22.6805C115.317 22.1445 115.467 21.6204 115.587 21.2258C115.647 21.0432 115.72 21.002 115.984 21.002H116.068C116.2 21.0137 116.332 21.0196 116.35 21.0373C116.362 21.055 116.356 21.1433 116.356 21.2199C116.35 21.2611 116.35 21.3082 116.35 21.3553C116.326 22.2093 116.657 22.9573 117.005 23.6581C117.017 23.6758 117.029 23.6994 117.041 23.717C117.065 23.7583 117.089 23.7995 117.101 23.8466C117.161 24.0469 117.305 24.1705 117.425 24.253C117.744 24.4827 117.816 24.7183 117.672 25.0716Z" fill="white"/>
<path d="M114.62 28.0345C114.524 28.1464 114.434 28.2701 114.35 28.3879C114.308 28.4468 114.266 28.5057 114.224 28.5646C113.797 29.1241 113.347 29.6306 112.89 30.0841C112.83 30.143 112.758 30.2019 112.668 30.2667C112.506 30.3786 112.446 30.3727 112.326 30.2137C112.17 30.0134 112.073 29.7719 112.031 29.4775C111.983 29.1359 111.965 28.7825 111.947 28.4409C111.935 28.1935 111.923 27.9462 111.899 27.6988C111.863 27.1157 111.875 26.515 111.953 25.9084C111.977 25.7023 112.001 25.4961 112.025 25.2841C112.091 24.6539 112.164 24.0002 112.344 23.3759C112.524 22.7634 112.746 22.304 113.059 21.9329C113.203 21.7504 113.359 21.6384 113.539 21.5796C113.881 21.4735 114.14 21.2615 114.38 21.0554C114.482 20.9611 114.572 20.9199 114.668 20.9199C114.698 20.9199 114.734 20.9258 114.764 20.9376C114.866 20.9611 114.872 21.0024 114.866 21.0672C114.854 21.1025 114.848 21.1378 114.842 21.1732C114.836 21.2321 114.824 21.291 114.806 21.3499C114.662 21.8446 114.608 22.3452 114.572 22.9459C114.536 23.6056 114.518 24.1474 114.518 24.6539C114.518 25.4313 114.632 26.1675 114.836 26.8448C114.987 27.3278 114.921 27.6929 114.62 28.0345Z" fill="#F4F4F4"/>
<path d="M113.436 18.9876C113.088 19.6119 113.148 20.0713 113.647 20.5719C113.671 20.6014 113.677 20.6131 113.683 20.619C113.677 20.619 113.671 20.6308 113.641 20.6544C113.562 20.7074 113.472 20.7545 113.358 20.7957C112.589 21.0725 111.947 21.5673 111.406 22.009C110.499 22.7569 109.73 23.6404 109.1 24.4001C108.691 24.8949 108.241 25.3484 107.814 25.7606C107.484 26.0787 107.232 26.3967 107.033 26.7265C106.919 26.915 106.775 26.9974 106.571 26.9739C106.012 26.9209 105.892 26.862 105.766 26.3437C105.694 26.0139 105.676 25.6782 105.67 25.2777C105.646 24.7476 105.838 24.1587 106.012 23.7052C106.475 22.4801 107.268 21.3493 108.439 20.2362C109.424 19.3057 110.409 18.6343 111.454 18.169C112.151 17.8627 112.752 17.7037 113.34 17.6684C113.406 17.6684 113.472 17.6684 113.538 17.633C113.598 17.6036 113.653 17.5918 113.713 17.5918C113.827 17.5918 113.941 17.6507 114.091 17.7862C114.169 17.8568 114.259 17.9334 114.265 17.9628C114.265 17.9864 114.163 18.0865 114.097 18.1513C113.827 18.4046 113.604 18.6873 113.436 18.9876Z" fill="white"/>
<path d="M113.611 16.7803C113.491 16.8745 113.341 16.8922 113.179 16.9098H113.13C112.8 16.9569 112.524 17.0276 112.278 17.1218C111.941 17.2573 111.605 17.3869 111.268 17.5164C111.01 17.6166 110.746 17.7226 110.482 17.8227C110.428 17.8463 110.392 17.8522 110.362 17.8404C109.947 17.6519 109.497 17.6107 109.07 17.5989C108.548 17.5871 108.157 17.2809 107.839 16.9982C107.833 16.9982 107.821 16.9864 107.815 16.9864C107.641 16.8097 107.16 16.6036 106.776 16.4504C106.77 16.4504 106.758 16.4445 106.752 16.4445C106.601 16.4092 106.445 16.3621 106.301 16.2914C106.079 16.1854 105.839 16.0853 105.562 15.9852C105.478 15.9557 105.424 15.9204 105.412 15.885C105.394 15.8497 105.412 15.7849 105.454 15.7025C105.616 15.3844 105.887 15.1371 106.331 14.9015C106.595 14.766 106.896 14.6895 107.16 14.6895H107.232C107.551 14.6895 107.755 14.7307 107.935 14.8367C108.289 15.0369 108.68 15.1194 109.058 15.1901L109.172 15.2136C109.455 15.2725 109.725 15.3903 109.983 15.5022C110.061 15.5376 110.145 15.5729 110.223 15.6023C111.202 16.0146 112.26 16.2443 113.365 16.2914H113.419C113.419 16.2914 113.461 16.2914 113.473 16.2973C113.521 16.3091 113.575 16.3032 113.617 16.2973C113.701 16.2914 113.707 16.2973 113.725 16.3326C113.779 16.4858 113.725 16.6919 113.611 16.7803Z" fill="#EFEDE4"/>
<path d="M126.261 3.60543C126.261 3.81156 126.219 4.00592 126.141 4.1885C125.768 5.0307 125.498 5.92003 125.24 6.77991C125.186 6.9507 125.138 7.1215 125.084 7.2923C124.681 8.59389 124.177 10.1252 123.51 11.5681C123.24 12.1453 122.981 12.6577 122.549 13.07C122.393 13.2231 122.213 13.3939 122.008 13.5176C121.726 13.6825 121.444 13.8827 121.173 14.1183C121.041 14.2302 120.885 14.2538 120.711 14.2773C120.729 14.2125 120.759 14.1536 120.783 14.0948C121.005 13.5647 120.915 13.1995 120.453 12.8403C120.17 12.6165 119.852 12.3868 119.438 12.3397C119.317 12.322 119.227 12.2336 119.149 12.0511C118.957 11.6094 118.909 11.1559 119.005 10.7141C119.209 9.78948 119.648 8.94727 120.302 8.21107C120.399 8.11095 120.477 7.99905 120.543 7.88715C120.591 7.81647 120.645 7.75758 120.705 7.72813C120.717 7.71635 120.729 7.70457 120.735 7.69279L121.36 6.93893C121.39 6.90359 121.426 6.86825 121.462 6.83291L122.279 6.06138C122.447 5.8788 122.627 5.708 122.807 5.5431C123.005 5.36641 123.204 5.17794 123.384 4.9777C123.612 4.72445 123.846 4.47708 124.08 4.23561C124.177 4.13549 124.273 4.02948 124.369 3.92935C124.597 3.68788 124.777 3.42874 124.915 3.16371C125.06 2.88101 125.522 2.61598 125.858 2.63365C125.906 2.63954 125.93 2.65721 125.967 2.7161C126.165 3.01647 126.261 3.30506 126.261 3.60543Z" fill="white"/>
<path d="M120.404 7.03806C119.99 7.49155 119.473 8.05695 119.095 8.68714C118.608 9.50579 118.338 10.2184 118.248 10.9252C118.182 11.4317 118.254 11.9028 118.47 12.3092C118.482 12.3269 118.488 12.3446 118.488 12.3563H118.452C118.368 12.3505 118.29 12.3622 118.206 12.3681C118.164 12.374 118.128 12.374 118.068 12.3858C118.032 12.3917 118.014 12.3917 118.014 12.3917C118.014 12.3917 118.002 12.3681 118.002 12.3033C118.002 11.8204 117.917 11.3492 117.743 10.8604C117.491 10.1595 117.395 9.41744 117.335 8.78137C117.311 8.51634 117.317 8.23364 117.329 7.96861C117.329 7.82726 117.335 7.68591 117.335 7.54456C117.347 7.468 117.401 7.09695 117.461 6.76125L117.491 6.57867C117.611 5.96027 117.719 5.3772 118.122 4.88836C118.374 4.58211 118.68 4.34063 119.035 4.17573C119.149 4.11683 119.329 4.0756 119.545 4.32297C119.695 4.49965 119.822 4.70579 119.912 4.94726C120.068 5.35953 120.218 5.7718 120.368 6.18996L120.494 6.54922C120.572 6.74947 120.548 6.89082 120.404 7.03806Z" fill="#F4F4F4"/>
<path d="M117.341 12.2504C117.323 12.5743 117.173 12.8099 116.902 12.9454C116.284 13.2634 116.248 13.8229 116.278 14.2116V14.247C116.284 14.3059 116.29 14.3648 116.29 14.3765C116.272 14.3883 116.194 14.406 116.134 14.4119C115.461 14.5297 114.938 14.7122 114.476 14.9949C114.374 15.0538 114.296 15.1245 114.236 15.207C114.109 15.3954 113.917 15.4956 113.653 15.5073C113.166 15.5309 112.728 15.4897 112.32 15.3719C112.145 15.3189 111.977 15.2718 111.803 15.2246C111.443 15.1245 111.07 15.0185 110.71 14.9007C110.091 14.6887 109.466 14.3412 108.806 13.8406L108.433 13.5638C107.857 13.128 107.256 12.6745 106.698 12.1974C106.511 12.0384 106.343 11.8499 106.187 11.6379C106.103 11.5319 106.073 11.4435 106.097 11.3729C106.115 11.3022 106.193 11.2374 106.325 11.1785C106.872 10.9606 107.46 10.8369 108.085 10.8251C108.127 10.8251 108.163 10.8192 108.205 10.8192C108.86 10.8192 109.545 10.9606 110.349 11.2433C110.476 11.2904 110.602 11.3375 110.728 11.3788C111.07 11.4965 111.425 11.6143 111.755 11.7851C112.199 12.003 112.602 12.3034 112.986 12.592C113.07 12.6568 113.148 12.7157 113.232 12.7746C113.311 12.8335 113.395 12.8983 113.479 12.9572C113.641 13.0867 113.815 13.2163 113.995 13.3341C114.344 13.5697 114.722 13.6934 115.118 13.7051H115.341C115.509 13.7169 115.683 13.7169 115.857 13.7169C115.965 13.7169 116.049 13.6698 116.092 13.5932C116.134 13.5226 116.128 13.4224 116.068 13.3282C115.983 13.181 115.839 13.0926 115.677 13.0867C114.752 13.0337 114.139 12.4801 113.611 11.8911C113.226 11.4612 112.932 10.9547 112.656 10.46L112.602 10.3775C112.241 9.74734 111.833 9.12305 111.443 8.52231C111.322 8.33973 111.202 8.15716 111.082 7.96869C110.92 7.71544 110.794 7.46219 110.71 7.21483C110.53 6.66121 110.283 6.12525 110.043 5.61286C109.953 5.4244 109.863 5.23004 109.779 5.04157C109.629 4.70587 109.503 4.35838 109.382 4.01679L109.274 3.69875C109.142 3.33949 109.058 2.98022 108.968 2.57384C108.872 2.13213 108.824 1.66096 108.836 1.1309C108.842 1.02489 108.86 0.936543 108.89 0.854089C108.932 0.765746 108.956 0.748077 108.974 0.742188C108.986 0.742188 109.016 0.742188 109.094 0.789304C109.316 0.924764 109.521 1.09556 109.719 1.25458C109.791 1.31348 109.863 1.37237 109.935 1.43127C111.202 2.45016 112.133 3.28059 112.938 4.14047C113.623 4.859 114.308 5.66587 115.094 6.67299C115.965 7.792 116.458 9.05237 116.83 10.1419C116.878 10.2833 116.926 10.4246 116.98 10.5601C117.113 10.9135 117.251 11.2786 117.305 11.6556C117.329 11.844 117.353 12.0443 117.341 12.2504Z" fill="white"/>
</g>
<defs>
<clipPath id="clip0_2432_4727">
<rect width="137" height="48" fill="white"/>
</clipPath>
</defs>
</svg>
